# xmcd
#
# Track frame offsets:
#	150
#	7097
#	14779
#	19332
#	26706
#	39748
#	56579
#	63815
#	73473
#	81294
#	96015
#	104909
#	119211
#	132456
#	145261
#	155379
#	166437
#	173490
#	189291
#	206543
#	216514
#	235565
#
# Disc length: 3343 seconds
#
# Revision: 0
# Processed by: cddbd v1.5.2PL0 Copyright (c) Steve Scherf et al.
# Submitted via: EasyCDDAExtractor 10.2.0.1
#
DISCID=4b0d0d16
DTITLE=Separate - Die Jagd auf den König 2
DYEAR=2007
DGENRE=Rap
TTITLE0=Komm in die Arena
TTITLE1=Bounce
TTITLE2=S.Brown
TTITLE3=Vendetta I
TTITLE4=Miami Vice
TTITLE5=Kopfgeld
TTITLE6=Kontingent
TTITLE7=Takeover
TTITLE8=Kreuzzug
TTITLE9=Die Jagd auf den König 2
TTITLE10=Exzessiv
TTITLE11=Das Leben ist Shizo
TTITLE12=Ein Spiel
TTITLE13=Diego Armando
TTITLE14=Geschichten des Lebens
TTITLE15=Vendetta 2
TTITLE16=Separate - Charon Freestyle
TTITLE17=187 SEPARATE
TTITLE18=Sean Breeze
TTITLE19=Superman
TTITLE20=Coke Money Music
TTITLE21=Ein neuer Tag
EXTD=
EXTT0=
EXTT1=
EXTT2=
EXTT3=
EXTT4=
EXTT5=
EXTT6=
EXTT7=
EXTT8=
EXTT9=
EXTT10=
EXTT11=
EXTT12=
EXTT13=
EXTT14=
EXTT15=
EXTT16=
EXTT17=
EXTT18=
EXTT19=
EXTT20=
EXTT21=
PLAYORDER=
